<svg width="387" height="633" viewBox="0 0 387 633" fill="none" xmlns="http://www.w3.org/2000/svg">
<path d="M17.0347 157.328C19.7629 91.9636 68.1286 37.9767 132.736 28.1794L244.397 11.2468C275.714 6.49774 307.809 12.7975 335.19 29.068V29.068C356.616 41.7998 369.571 65.0782 369.041 89.8917L365.356 262.285L382.726 434.687C384.314 450.447 383.15 466.337 379.284 481.646V481.646C363.621 543.687 306.745 586.024 242.658 583.348L195.977 581.399C88.1195 576.896 3.77644 485.381 8.13313 377.582L17.0347 157.328V157.328Z" fill="#5FD191" fill-opacity="0.28"/>
<path d="M16.985 169.353C19.74 98.8292 71.4062 40.2754 140.961 28.8496L241.163 12.3896C274.427 6.92527 308.651 14.0028 337.225 32.2552V32.2552C357.491 45.2014 369.591 67.7604 369.108 91.7008L365.274 281.985L382.774 469.526C384.237 485.208 383.153 501 379.564 516.287V516.287C363.698 583.871 302.176 630.368 232.662 627.315L193.708 625.604C86.8517 620.911 3.32795 530.322 7.3694 423.503L16.985 169.353V169.353Z" fill="#5FD191" fill-opacity="0.28"/>
</svg>
