<svg width="485" height="925" viewBox="0 0 485 925" fill="none" xmlns="http://www.w3.org/2000/svg">
<path d="M21.3473 229.699C24.7828 133.809 94.1907 53.8895 188.503 37.2278L297.63 17.949C342.048 10.1018 387.979 20.2254 425.357 46.1014V46.1014C449.197 62.6052 463.248 89.9263 462.719 118.75L457.872 382.938L480.098 639.931C481.789 659.481 480.543 679.139 476.402 698.249V698.249C456.322 790.904 372.536 855.019 277.571 850.4L240.305 848.587C107.673 842.136 4.00715 729.543 8.60742 596.936L21.3473 229.699V229.699Z" fill="#5FD191" fill-opacity="0.28"/>
<path d="M21.7246 234.145C24.9376 138.327 93.506 58.0331 187.477 40.0496L293.058 19.8441C340.148 10.8325 389.094 22.145 427.87 51.0019V51.0019C450.243 67.6518 463.264 94.04 462.784 121.761L457.77 411.7L480.121 690.766C481.679 710.214 480.52 729.751 476.679 748.814V748.814C456.388 849.507 365.826 919.682 262.962 914.419L237.666 913.125C106.185 906.397 3.50178 794.837 7.77174 663.357L21.285 247.257L21.7246 234.145Z" fill="#5FD191" fill-opacity="0.28"/>
</svg>
