<svg width="720" height="877" viewBox="0 0 720 877" fill="none" xmlns="http://www.w3.org/2000/svg">
<path d="M23.7472 342.989C27.5795 281.557 75.3793 231.96 136.628 225.864L408.55 198.802C440.334 195.639 472.424 199.454 502.58 209.98V209.98C547.714 225.734 577.449 268.902 576.082 316.686L573.308 413.628C572.843 429.88 574.016 446.137 576.808 462.153L598.203 584.879C602.644 610.35 599.786 636.558 589.962 660.474V660.474C568.525 712.657 517.295 746.367 460.888 745.405L335.211 743.262C152.46 740.145 9.16093 585.338 20.1419 402.891L23.7472 342.989V342.989Z" fill="#D15F5F" fill-opacity="0.20"/>
<path d="M2.95691 235.004C8.41072 137.906 82.7445 58.7152 179.304 47.1347L462.888 13.124C511.617 7.27981 561.015 14.9629 605.668 35.3313V35.3313C654.612 57.6576 685.403 107.15 683.801 160.922L677.921 358.301C677.295 379.313 678.327 400.341 681.006 421.19L708.594 635.897C712.576 666.879 709.577 698.359 699.817 728.032V728.032C670.845 816.12 587.402 874.673 494.712 871.957L363.74 868.118C147.413 861.779 -21.1896 678.439 -9.42226 462.339L2.95691 235.004V235.004Z" fill="#D15F5F" fill-opacity="0.20"/>
</svg>
