<svg width="121" height="134" viewBox="0 0 121 134" fill="none" xmlns="http://www.w3.org/2000/svg">
<path d="M100.201 40.4395C100.201 53.0183 94.5088 64.2556 85.5812 71.6726L67.3095 89.1932C64.5049 91.8825 59.8588 89.8247 59.9512 85.934V81.6777L59.9647 80.8788C59.9602 80.8788 59.9557 80.8788 59.9512 80.8787V59.6568C69.9328 58.393 77.6545 49.7995 77.6545 39.3864C77.6545 28.103 68.5882 18.956 57.4042 18.956C46.2203 18.956 37.1539 28.103 37.1539 39.3864C37.1539 39.5978 37.1571 39.8085 37.1634 40.0183H37.1539V73.5886C35.9013 80.8788 20.0351 54.1554 20.0351 40.4395C20.0351 18.1054 37.9809 0 60.1182 0C82.2554 0 100.201 18.1054 100.201 40.4395Z" fill="#1A3140"/>
<path d="M119.249 120.968V111.512H121V120.968H119.249Z" fill="#1A3140"/>
<path d="M107.424 120.968L111.666 111.512H113.39L117.646 120.968H115.815L112.165 112.444H112.865L109.229 120.968H107.424ZM109.377 118.779L109.848 117.401H114.939L115.41 118.779H109.377Z" fill="#1A3140"/>
<path d="M91.7329 129.008V115.268H94.7856V119.051L94.4265 117.944C94.8369 117.018 95.4783 116.315 96.3505 115.834C97.2398 115.354 98.3429 115.114 99.6597 115.114V118.176C99.5229 118.141 99.3946 118.124 99.2749 118.124C99.1552 118.107 99.0355 118.099 98.9158 118.099C97.7015 118.099 96.7353 118.459 96.017 119.179C95.2987 119.883 94.9395 120.937 94.9395 122.344V129.008H91.7329Z" fill="#1A3140"/>
<path d="M82.2138 129.188C80.6917 129.188 79.3577 128.888 78.2119 128.288C77.0831 127.67 76.2024 126.83 75.5696 125.766C74.9539 124.703 74.6461 123.493 74.6461 122.138C74.6461 120.766 74.9454 119.557 75.5439 118.51C76.1596 117.447 76.9976 116.615 78.058 116.014C79.1354 115.414 80.3582 115.114 81.7264 115.114C83.0603 115.114 84.2489 115.405 85.2922 115.989C86.3354 116.572 87.1563 117.395 87.7549 118.459C88.3534 119.522 88.6527 120.775 88.6527 122.215C88.6527 122.353 88.6442 122.507 88.6271 122.679C88.6271 122.85 88.6185 123.013 88.6014 123.167H77.1858V121.032H86.9083L85.6513 121.701C85.6684 120.912 85.5059 120.217 85.1639 119.617C84.8218 119.016 84.3515 118.545 83.753 118.201C83.1715 117.858 82.496 117.687 81.7264 117.687C80.9397 117.687 80.247 117.858 79.6485 118.201C79.067 118.545 78.6052 119.025 78.2632 119.642C77.9382 120.243 77.7758 120.955 77.7758 121.778V122.293C77.7758 123.116 77.9639 123.845 78.3401 124.48C78.7164 125.114 79.2466 125.603 79.9306 125.946C80.6147 126.289 81.4014 126.461 82.2907 126.461C83.0603 126.461 83.753 126.341 84.3686 126.101C84.9843 125.861 85.5316 125.483 86.0104 124.969L87.7292 126.95C87.1135 127.67 86.3354 128.228 85.3948 128.622C84.4713 129 83.4109 129.188 82.2138 129.188Z" fill="#1A3140"/>
<path d="M65.7817 129.188C64.6701 129.188 63.6525 128.931 62.729 128.416C61.8226 127.902 61.0957 127.13 60.5485 126.101C60.0183 125.054 59.7532 123.734 59.7532 122.138C59.7532 120.526 60.0098 119.205 60.5228 118.176C61.053 117.147 61.7713 116.383 62.6777 115.886C63.5841 115.371 64.6188 115.114 65.7817 115.114C67.1328 115.114 68.3214 115.405 69.3475 115.989C70.3907 116.572 71.2116 117.387 71.8102 118.433C72.4259 119.479 72.7337 120.715 72.7337 122.138C72.7337 123.562 72.4259 124.806 71.8102 125.869C71.2116 126.916 70.3907 127.73 69.3475 128.314C68.3214 128.897 67.1328 129.188 65.7817 129.188ZM58.1884 134V115.268H61.2411V118.51L61.1385 122.164L61.395 125.818V134H58.1884ZM65.4226 126.435C66.1922 126.435 66.8763 126.264 67.4748 125.921C68.0905 125.578 68.5779 125.08 68.9371 124.428C69.2962 123.776 69.4758 123.013 69.4758 122.138C69.4758 121.246 69.2962 120.483 68.9371 119.848C68.5779 119.196 68.0905 118.699 67.4748 118.356C66.8763 118.013 66.1922 117.841 65.4226 117.841C64.653 117.841 63.9603 118.013 63.3447 118.356C62.729 118.699 62.2416 119.196 61.8824 119.848C61.5233 120.483 61.3437 121.246 61.3437 122.138C61.3437 123.013 61.5233 123.776 61.8824 124.428C62.2416 125.08 62.729 125.578 63.3447 125.921C63.9603 126.264 64.653 126.435 65.4226 126.435Z" fill="#1A3140"/>
<path d="M49.2188 129.188C48.073 129.188 46.9699 129.043 45.9095 128.751C44.8663 128.442 44.0369 128.073 43.4212 127.645L44.6525 125.2C45.2682 125.595 46.0036 125.921 46.8587 126.178C47.7138 126.435 48.5689 126.564 49.424 126.564C50.4331 126.564 51.1599 126.427 51.6045 126.152C52.0663 125.878 52.2972 125.509 52.2972 125.046C52.2972 124.668 52.1433 124.385 51.8354 124.197C51.5276 123.991 51.1257 123.836 50.6297 123.734C50.1338 123.631 49.5779 123.536 48.9623 123.451C48.3637 123.365 47.7566 123.253 47.1409 123.116C46.5423 122.962 45.9951 122.747 45.4991 122.473C45.0031 122.181 44.6012 121.795 44.2934 121.315C43.9856 120.835 43.8316 120.2 43.8316 119.411C43.8316 118.536 44.0796 117.781 44.5756 117.147C45.0715 116.495 45.7642 115.997 46.6535 115.654C47.5599 115.294 48.6288 115.114 49.8601 115.114C50.7836 115.114 51.7157 115.217 52.6563 115.423C53.5969 115.628 54.3751 115.92 54.9908 116.297L53.7594 118.742C53.1095 118.347 52.4511 118.081 51.7841 117.944C51.1342 117.79 50.4844 117.713 49.8345 117.713C48.8597 117.713 48.1328 117.858 47.654 118.15C47.1922 118.442 46.9613 118.81 46.9613 119.256C46.9613 119.668 47.1152 119.977 47.4231 120.183C47.7309 120.389 48.1328 120.552 48.6288 120.672C49.1247 120.792 49.672 120.895 50.2706 120.98C50.8863 121.049 51.4934 121.16 52.0919 121.315C52.6905 121.469 53.2378 121.684 53.7338 121.958C54.2468 122.215 54.6573 122.584 54.9651 123.065C55.2729 123.545 55.4269 124.171 55.4269 124.943C55.4269 125.801 55.1703 126.547 54.6573 127.181C54.1613 127.816 53.4516 128.314 52.5281 128.674C51.6045 129.017 50.5015 129.188 49.2188 129.188Z" fill="#1A3140"/>
<path d="M34.6085 129.188C33.2061 129.188 31.9577 128.888 30.8632 128.288C29.7686 127.67 28.905 126.83 28.2722 125.766C27.6394 124.703 27.323 123.493 27.323 122.138C27.323 120.766 27.6394 119.557 28.2722 118.51C28.905 117.447 29.7686 116.615 30.8632 116.014C31.9577 115.414 33.2061 115.114 34.6085 115.114C36.028 115.114 37.285 115.414 38.3795 116.014C39.4912 116.615 40.3548 117.438 40.9705 118.485C41.6033 119.531 41.9197 120.749 41.9197 122.138C41.9197 123.493 41.6033 124.703 40.9705 125.766C40.3548 126.83 39.4912 127.67 38.3795 128.288C37.285 128.888 36.028 129.188 34.6085 129.188ZM34.6085 126.435C35.3952 126.435 36.0964 126.264 36.7121 125.921C37.3278 125.578 37.8066 125.08 38.1487 124.428C38.5078 123.776 38.6874 123.013 38.6874 122.138C38.6874 121.246 38.5078 120.483 38.1487 119.848C37.8066 119.196 37.3278 118.699 36.7121 118.356C36.0964 118.013 35.4038 117.841 34.6342 117.841C33.8475 117.841 33.1463 118.013 32.5306 118.356C31.932 118.699 31.4532 119.196 31.094 119.848C30.7349 120.483 30.5553 121.246 30.5553 122.138C30.5553 123.013 30.7349 123.776 31.094 124.428C31.4532 125.08 31.932 125.578 32.5306 125.921C33.1463 126.264 33.8389 126.435 34.6085 126.435Z" fill="#1A3140"/>
<path d="M17.93 129.008V115.268H20.9827V119.051L20.6235 117.944C21.034 117.018 21.6753 116.315 22.5475 115.834C23.4368 115.354 24.5399 115.114 25.8568 115.114V118.176C25.72 118.141 25.5917 118.124 25.472 118.124C25.3523 118.107 25.2326 118.099 25.1128 118.099C23.8986 118.099 22.9323 118.459 22.214 119.179C21.4957 119.883 21.1366 120.937 21.1366 122.344V129.008H17.93Z" fill="#1A3140"/>
<path d="M0 129.008V110.997H7.38811C8.97861 110.997 10.3382 111.254 11.467 111.769C12.6128 112.283 13.4936 113.021 14.1092 113.982C14.7249 114.942 15.0328 116.083 15.0328 117.404C15.0328 118.725 14.7249 119.865 14.1092 120.826C13.4936 121.787 12.6128 122.524 11.467 123.039C10.3382 123.553 8.97861 123.811 7.38811 123.811H1.84703L3.33491 122.241V129.008H0ZM3.33491 122.601L1.84703 120.98H7.23419C8.70497 120.98 9.80806 120.672 10.5434 120.054C11.2959 119.419 11.6722 118.536 11.6722 117.404C11.6722 116.255 11.2959 115.371 10.5434 114.754C9.80806 114.136 8.70497 113.827 7.23419 113.827H1.84703L3.33491 112.181V122.601Z" fill="#1A3140"/>
</svg>
