<svg width="1043" height="701" viewBox="0 0 1043 701" fill="none" xmlns="http://www.w3.org/2000/svg">
<path d="M45.9106 174.025C53.1905 102.441 111.359 46.5043 183.165 42.0352L731.76 7.89159C769.852 5.52081 808.058 8.90807 845.087 17.939V17.939C933.248 39.4402 993.504 120.493 988.778 211.225L986.525 254.489C985.295 278.117 987.532 301.783 993.166 324.731L1021.08 438.42C1031.87 482.403 1024.55 528.959 1000.75 567.654V567.654C969.239 618.874 913.036 649.7 853.034 648.672L432.358 641.463C199.443 637.472 20.1067 436.07 42.9454 204.138L45.9106 174.025V174.025Z" fill="#D15F5F" fill-opacity="0.20"/>
<path d="M45.7766 187.327C53.1094 110.286 115.337 49.7488 192.547 44.5433L727.52 8.47528C768.387 5.72003 809.4 9.60434 848.964 19.9771V19.9771C935.25 42.5994 993.75 122.471 989.371 211.68L986.252 275.205C985.056 299.564 987.188 323.957 992.588 347.709L1022.01 477.135C1032.01 521.13 1025.1 567.352 1002.63 606.632V606.632C969.816 663.995 908.34 698.965 842.398 697.776L428.788 690.321C197.008 686.143 18.2049 486.423 39.4936 255.486L45.7766 187.327V187.327Z" fill="#D15F5F" fill-opacity="0.20"/>
</svg>
