<svg width="279" height="467" viewBox="0 0 279 467" fill="none" xmlns="http://www.w3.org/2000/svg">
<path d="M12.2806 116.069C14.2488 67.8147 49.8423 27.9048 97.5066 20.5081L175.479 8.4082C198.488 4.83754 222.097 9.55618 242.109 21.7252V21.7252C257.296 30.9604 266.444 47.5844 266.074 65.2769L263.396 193.503L275.961 321.125C277.078 332.47 276.258 343.903 273.537 354.935V354.935C262.202 400.879 220.18 432.302 172.784 430.277L140.808 428.911C63.2795 425.598 2.65428 359.816 5.71464 282.325L12.2806 116.069V116.069Z" fill="#5FD191" fill-opacity="0.28"/>
<path d="M12.2448 124.942C14.2324 72.8738 52.2497 29.5838 103.563 20.9578L173.104 9.26777C197.538 5.16045 222.71 10.4575 243.575 24.0971V24.0971C257.924 33.4768 266.457 49.5789 266.121 66.6404L263.337 208.037L275.992 346.826C277.021 358.114 276.258 369.476 273.731 380.491V380.491C262.255 430.519 216.806 465.012 165.408 462.701L139.192 461.523C62.3753 458.071 2.33631 392.944 5.1755 316.15L12.2448 124.942V124.942Z" fill="#5FD191" fill-opacity="0.28"/>
</svg>
