<svg width="1392" height="701" viewBox="0 0 1392 701" fill="none" xmlns="http://www.w3.org/2000/svg">
<path d="M61.2697 174.025C71.0166 102.212 130.941 47.3287 203.287 43.9548L995.58 7.00699C1033.94 5.21818 1072.34 7.79284 1110.03 14.6814L1140.82 20.3075C1249.07 40.0885 1324.74 137.717 1317.09 247.725V247.725C1315.15 275.727 1318.62 303.79 1327.33 330.374L1354.8 414.196C1373.76 472.081 1361.66 535.92 1322.72 583.348V583.348C1287.99 625.654 1235.95 649.923 1181.47 649.224L446.746 639.79C208.7 636.734 27.9327 427.691 58.9888 191.381L61.2697 174.025V174.025Z" fill="#5F87D1" fill-opacity="0.28"/>
<path d="M61.0909 187.327C70.9007 110.101 134.953 50.7073 212.659 46.7818L991.176 7.45362C1032.44 5.36907 1073.76 8.33303 1114.21 16.2796L1124.89 18.3769C1242.7 41.5215 1324.58 148.175 1316.71 268.252V268.252C1314.82 297.124 1318.14 326.052 1326.52 353.651L1356.6 452.799C1374.26 511.017 1362.69 574.44 1325.51 623.144V623.144C1288.77 671.27 1231.45 699.224 1171.19 698.41L442.096 688.563C205.482 685.367 25.2601 478.566 54.1869 243.444L61.0909 187.327V187.327Z" fill="#5F87D1" fill-opacity="0.28"/>
</svg>
